/* XPM */
static char *d887180c86a04b7a905cdb9d8c58f879y26idCqBbDZivgsC[] = {
/* columns rows colors chars-per-pixel */
"100 100 42 1 ",
"  c #6E5533",
". c #715733",
"X c #745A35",
"o c #795D37",
"O c #765C38",
"+ c #7A5E39",
"@ c #7D613B",
"# c #83653D",
"$ c #86683E",
"% c #8A6A3F",
"& c #836740",
"* c #866941",
"= c #8C6D42",
"- c #906F41",
"; c #8F7045",
": c #947345",
"> c #997646",
", c #9B7847",
"< c #967549",
"1 c #987749",
"2 c #9C7A4B",
"3 c #9F7E50",
"4 c #A17E4D",
"5 c #A17F50",
"6 c #A4814F",
"7 c #A8834F",
"8 c #A58251",
"9 c #AA8553",
"0 c #AE8956",
"q c #AE8A58",
"w c #B18B56",
"e c #B38D59",
"r c #B7905B",
"t c #BA935D",
"y c #BE9660",
"u c #BF9861",
"i c #C09760",
"p c #C39B63",
"a c #C89F65",
"s c #CAA167",
"d c #CDA368",
"f c #D1A66A",
/* pixels */
"8wO&ar8&@*::=#o>>,,>=O10yw8925=::4:>4,%7<:14tt599211<&>:466it28tt9r9wtp911,7ww99ipr0yudfq885w<<=<e8<",
"9wO@py8@&=:==O#:,,2>$+29w09942=%:4>%%4%w=-14et8992>9,==>468tt86rq0r80et02227we97pptrupdd92889<:=2w9<",
"q9 &py2@*=--%X#::,21$$20t99944==>4>:>,%w=-24wi8494592$:>424at81eq9r90ri01667wt98aptqupds82930<<:108:",
"e3 &py2+$$-:%.$::>4,%$2eiw979,=-:4>:,4%0<=480y80w4941#::6>8at61rq7rwwet01227et79ttr7ppss51558;;<208;",
"e3O@py2&$$=1$.$>:,,1#$45iw7774-=,4,,>>%4--340t499,74:$->220it61te7tqert92,27er29trr9ppsp3<985;;<108;",
"q2O&pt3*$+-:=.$2:>>>#=>4iw9744-=,7%,>>>%-:24wt57w2274@>>489yt82wr7rq0ttq1227wr6qqerqppsp81385;=;1w5=",
"e9@*py3=$+=:= $2:-::#$59t07744:-%4,%,,%4-%440t59w4>98+>>616ut86qt9ewweu0:2679e6t9yreppss31:30<=;:w4=",
"e9O*ii2==+%1#.%2--:-+=59r97744:-%4,>,,%4-$240t59r2441#->428trq7qt0wwwtt811767e2e8ytwtasp33189<;;-e5=",
"q5O&yy3==$$4#.:4:-,:$-<9w067222:44%%,>%4,%440t45916,2%%>46qtt92erqq0wtp7>>669r6q3yq0rpdp32,993*;:03*",
"e< &py5<=%$:$.:<::,-#:,9ww77125-44,4,,%7%%440t4496122%>>249trw7qrq99etp8<,46qq2r;yy0rpdp33<993;:-02*",
"e5O&py5<$=$:=X-2>:>:+209we94::4-47%4,,%,4%440r49w2,22=>>,,8uer9wq9wqwip72226wr8r*uy8rssp32893:;=:93&",
"e0+&pp<;$%$=-O:41-,:#199er99>95=774%,,%44%%49r94w6112@%>229terqq99rwwpa9>4,40e88&sq9ypps33803<;:182*",
"0q##ae:<$$==-+<41-,<%>99te894e1-474%,>%,%%%47r04e2112@%>219tew8899qq0us0:2,29q21*de0yudp32<993==<82:",
"0,+=pe:2=$===X,4<:,-$:99tw47481-444,>,>4%4%47w09w6126@%>266tww9999r99usq2,,6981<*dqqepsp32<e85==:52:",
"93#=aw14$$=#<+>41>,=$:24r9464,1-,4,%>,%,4%447w99e6>18$:;286rer9890e00ydy,124e8<<=sq0rpda33:q32<=:93<",
"e2+=ae1>$$==1#,4,>>=$-48ww4451<=,4%4,>%,4%%47r4406,:6%%:226rr92q99wq9ydu1,46e8:2;sqqqpda32<e52<*182<",
"04&;p0;2##=:<+>2,1>=#:,400444>-=%6%,,,%%>:>49e88w2,:6%::,66qqq8999eq9tdy3228e222<dq9qasa88<e88<*1821",
"q1=1iq;5+#:-1+:42,2=#:248w2441<-,77%%,4%,:;69r8906>19;:%,69q9q890wee9edr214698;83fq8raaa83;y98,&<821",
"04*<aq=5++<=,+:42<,=$=2280442<5-%4,,,,%42:,49w9876129;>:268e8q899ew09rde2<>498*83aq3qpaa38:eq81=:822",
"55$;a0=5+@=&<+:2,<,:%=122w24,40=%,,,>,%4,=,4ww8806>,6%%:,,9r8q8q9e009edq2>:2498,3a98epfu90=qe2:=<225",
"03;;a015X%$=>@:2>2>:=%423e<9229=%%6,,%%72=26909906<,<%:,11qq88899qe00tpq2>;>488<3u98raayr8<eq8,=<124",
"0:;<a822 @==<@:2,2,:%:,:3e251,8$%4%4%>,4<=26890906:1:;:,12rr666qq9rq0raq11;>28<:3y89rauuy8;ye85=<,<9",
"81<<p523 +==,#:,2,,:%;2=:y44112$%46,%4%2>:,946w906><1;;1<2rt639rq8we0yuq:;<:,86=8a88qaduy8<y099$<210",
"803<p5<3 ===5+::2,>:::9;:t4622:#%7%,>:>%::,678wq06>%<*>,:6rr<69qr8qw9ttq;;==280$8pq3yaduy8<y098$;82q",
"0021y813.#&::o::,<::=:0=:y52281$,%%4,,%%::179690861<;#1,16et188qy8qeeere=:=:45w#3yq3ypapp53re84&=28w",
"0513i3<5X$=<=@-:<::2:=0=;y0<>92$4%,,%,,%;:,9960992:2:#;,16rt663ye80ewtye===>48e=<r82yasay53yr04#=880",
"0833y5;3X==<%#>=:=:4:=8::i0254<=%%6,%>%,>:279209021:;=>:;,qt636re90eeyee<<%,14q*3r33yasay5<yy05@=990",
"553<y53<O==:##:-1%:4:=3;<p04r21=%4,,,,%,,1,77,8996::#>,;::0t661rr0eyey0q=:%4,48*<y93yapay38er92@=99w",
"9023y33:O$=<=&%%,&:6:#2:1a82w8:=%,,,%,%,1>16916972:2#1,;2;qe836ey0qw8y99=<&1:64;2e9<eyppy38yt02#=99w",
"95<5y35<*-=:=@::,=:6-#<:<d8252=:%,4,,,%,1>>,8<6972:1#;,:2<qq8<9ey9we9y021<&>>62&3y9<epaap38ut82@:999",
"w821p58<===:=#:%2=<6=%>:<d92,<=>%44,,,>%1:<66<1882:>%%,1<2yy120ra0wtey922==>>83&2093rppay<9yee2@=699",
"e042a55:=*==*%:%4$24%%<=<dq<92$:%,,,,%>,:1;68<166,:1;;>126yy163ryqteee811==>:83*2q93raupy29yew1$;996",
"0933a33<2$*=>%>%4%42=$<=<fr,83<:%,,>>,,%>>>49<2942-4=-<-59tw5<1wy0eeer82<<>>:92=1q95tsype3qyyq1$=899",
"8818p32=5$:=,%%%4%4,==1*<ae15<5<%,,>>%>>-,148:194,<5==,-:4er225et0re9r401<:128,=<q08tpyar<8ptw1$%97w",
"9918p31;,&1=,#:%4=42-%1&3pw52<8<%,4>,>>>-,,>54<5,,-5-*>,,4et254etqre0r891:=,,22=2qq8eayde38pt0<==999",
"q921i32=1$1=:#%=2$2>:%3+3at91:9-%%,,>,%,,:4452<52:451$-4549i255ty9rr0e845:%41<8&19q2tpyar25yr0:&$998",
"r8<1u88*1==*:&=:2@1:-%4+5iy8:-8=%%,,>,%,4-444<442-242<-4845y404ty9eee98241:4-:5$19w3taysy32yre:&#096",
"99;2r82====#:=-:1$1>==2#5pt0,$8:%>,,>%%>,,4454442--4<-<,448i395wu9terr3::::2=,2$<qe2tpyay3<yrq=@#988",
"88<1r85&==,&1*%:<$:1:=2$9ir82#5-%,,%,%%,4,>441442-;42&11945i298rietrrr328&;2=45$2re5ipiay<<yr0=+#996",
"q83<r98&,=<*,$%:,%:2-=5&8ie44#1-%,>>,>%>4>:542492<<52*-2625i100tuetrte82e:=,=69#5re8pitay;<yw9=O#964",
"922;e88&<%=@<=%>,*-2=-4=8ae44#>=>,,%,%%%7,,44459<><2<$=2742y299eittttr32r2$>;99&5ye8yiyay;=p9e=##864",
"58;@r89*2=1#=;%<:=:4%:8:8ay2,=--%4,,4%%,44,45499<><,=+:>924t5990irtutw889>$:%qq*5pq5yyypy<2p0q:@@846",
"89=#y89<8=2*=<$1:#:4--9=0at44=--%4,%,%,%4,,44494::<1=&>,926t3258ietytr829:$:,w9&8d98yrupy<9yq9=#@288",
"98=#r98:5;,*=2$:*=:4=15=0ai22-=%%74%,,%%%,444944<:<<;&>2729t258wieeutw826:%:>r8&9d88yyydy23ye9=$+<70",
"q8;@yq9<8:1==4@1%%:2#>2=epi94:%%>7,%,%%44,444444<:2,<&:,258y259qrqeiyq866>=:<08*wd98yrydy32ye8=*@179",
"93;@rq8<8:2:=9+:::>4#><:ept544%:%7,%,>%,4%,4474w<=22=O:,1,5y1389qeqiyr928>>=:02:yd98yyyay25t99=*@>69",
"85;@rq8;2=4=$2@-->>4+<<<rie44-%%%4,>>,>,4%44794w:=2:&@:>:28y1559eeeuyq026:1%2q3<yd83rqyay;8re9=#@<69",
"81;@rq9<1=2==,o:%:,2O:290te44-$-%4,,,%%,4,,74w99;:<==$=212wy2280eqrpyre,2:4=8q,;ud85ryyay<3rr9*@@<82",
"92=+yq5<1=4:=:+=::>1X-2eqe941=*>%26,,%:,4>164048::;=*@;22,0t129qt0eaire22,2109;<sd98ttusy69rr0@#&162",
"85&*ie9<2=2=:<+=-:>:X:5wee84<=$:%,4%:%>22:>22q28::===@%2210t3199e0eparr<224,q9=:ppq8uupsy26tr9#@&168",
"0<;=iy84<$>=:4+=->,:.:8wr0641=$:%62%>%:>>:;28e261::=;@%,269e228909eiprr24262ee<<sur8ttsdy16rq9@#*<28",
"3<;&yi831=2*:2+==>>%.<4ww974-1%-%%2>>>>;1>%69r<82:<<:@>>288e66290wwuirt22476qe;3uyy2ttpdr82tt9@@*169",
"<<&&ry951$1*12@=::>;X:2qr944%4%:%%74>%>>2,%6er,22::2<@=:,28y6<309q9upry61444w9:9uyy<utppq88qt8@X;<69",
"11=*yy99<$:=2<@=:::=.><9i944-7=-%67%>%%221%2wq236;>21O;:189y8;6999eturr34944w7;qyyy2pqddy38qt6*@*;66",
"<1=*pr89:=:$>,+=:>:=.<:et844-<*=4%6%%:=22,%69e242:>11O;:238r8;3898etpye199>469-eqyr3uysdq88yt8#@*&88",
"<1;=pe80==<$16X#>1-=O2>et744-1==%%,6>=$621$28t3221;<8@:1263r3<8898erpre<42>449:yquq3uysdq08rt8$@=#66",
"3<&;pq90:=:$=5+$4:%#@61et966:3%;,4,,,%%6<<$<6e226:=28@%,199e610398wiire<,>4,801uquq3uydse0<ey3#@;#77",
"3<@;yqew==<=<1O#2=:%+4:9p942:<$=%%,4,%#%::$<9t866;%22X:,<6ee638609rrtte<8,41801u8y83uudsy82yy8&@&#88",
";2&<yq80:=1=::o$4%:$@6=9p98,<;==,444,%#%2:#89i248<*22@:,,89q880899rewre1226>99<u8yq8yyddq86yq2&@#@98",
"=8=2ye2w==2=,:o=4$:%@6=0iw81:;**%74%%%#41>#90t2292;62O>,18qq88886wrewtw:846:991y<u93yyds888qy<*@@*98",
"<8:5yq8e&#<=2:O:4%>$@229t06>::==%44,,>#%<:$86t1292;23X:1<89e888389eeeeq<626:98<y<qq8yyppq89yt1%@&*79",
"38:3pe2e@#,25=$:2=>#&3:8i02>;<:=,%4,,%#72:=66e6681;16X;239<y898q89ererq<424>921y;yq8yydp860yt;$#**99",
"93;3aw4w@*,2<*$-,=>$$8=9t826,>4%%44,,,#4<;;669866:;:6O:2109eqq3999wrerq22,,,0<8q;yq9yyds936rt<*$#$88",
"5<28pe00+=>8<=#:1=:=#0=8t8>66>,4%%%,,%%%<=<9308261::2 >12q8eq889w8wrwre1,>220<8q&uq8yuss022tr6*#*=68",
"8238prw9@%>81;#=,=>$=8<5t5142<1:>%4%4%%44>:789828::<2 :1484t0699q80ewrt2214,w185&y09tydp938ye2;##=88",
"8139py08X%122:@>,=:$=3<8r5>4:=2:4%4,,%%%:%%46q828<2<< :,258re43998wt0et2424,0,82*y9qyudp898yq8=@#=98",
"5528pr85X=<<<=@,:=:#:3;9t5>4==2=,%%4,,%4:%,49r948,1,2X:>204rt82098qeqtt142:49<3:&yyqeiad839ee2;#*=98",
"88<9pq92X::<;=#>:=:$:<;8i2:1=<:%4%,,,%%4:=:499948<<81 :>>54ee98q9qwtwtr82>,,914=&yee9apa829er2:##>w9",
"83<qpq92X:12:$#:::=%:2=5i3:112==,,%,,%%,>==,809591:4;X::<910e35q0wwtqtr811440<2&=e9y8ppp925e99=&@:e9",
"3329uq82+>:2>#@=1:==:,=3y2=251-=,44,,4%4>$:8ww949:41=O>,>99e9<qe99wiett911,49:<1<qqr8pia8:8r92;=@:00",
"3328aq83+>:,,@#=,::=::=:t2::1,<-%7,>,,%41=>8ww849:2:1+:,<50w888r890tett92,488<=e49qe3ppa829y96:=@:90",
"2831pq8<O><<,@#=,=:::::<e<:=<4:->44,4%%42=>4w08682912@2215q0858y50rieti82,480<1e29qe3pya988t82%;@>w9",
"8829a083O:<::@#=>%:-::<2q:-815=:,4,,,>%%4:>909690608:#>,:5ew938y80ryrru8<2389:2e:8ee5pyp029t89$=@;q2",
"08<9a883X:><:@@=1&::::159:=823::%4,,,%%48<:8w88902<4>@:4-5w8915y38eyqra8<340q*39*9ee8pyp9<ee88==O<08",
"93<8a9q<.:12>@@=2$1:-:280:=2:1:=%4,>,>%442:4w69901>,:O:2=5e0529q86eirra8>4499=82&9eq9pyp32qq85==O,09",
"8213aqq<.:22:+#=2#:--:29q:<<$12%,,,>,%%,22:20499w8>2,X%>=1y0529q88eirya817498<4:&9e98uuu33qq23==@,99",
"32:qa9q;o:2>;##=2#2-%:19q1:8-:2:4%4,::%14>:29899w822<X:,:5rq219y08ruetd922492=:2&9r88pyy39994,;=@>89",
"94:9pqe<o:,>%@@%,=2:==1ee2:55<2-4%,>::%>9:>4q8990489;@>2:5y53=5y08yyeed9:>64<=w9*8r89yyp8w90<<;*#,96",
"88>3yee;+>6>:X#=<=<-==1te2:2825:4>,>:::=4<>89890w6>2<#,,-4i85=qyy8yyyrd01:8,:<t8$3e89yip99w03,&*#2w7",
"89<3yey&@%4>=X#%<=1:*,,e02=4222>%>4>>>=@12:2899099,:2@,214y95:wye0yyyepe2>6:3qq9:3e8wyppqeeq82+#$6w9",
"93<<iee*#:4<=o$$<<2:%-1002=<4,5-%4,>>>>%,%479988q3<12o,,<8y95:8yt9tairu922115w9923e5tutpeew042@*#6w9",
"93*&aee&o:2-$@#%::2>%=29w2=<,<5-,,,,,>%%%4%78928w,:82o>,28r95<0yy9tiyey9,1,2806923e8yuya9ee96,&;#6w9",
"88=;iwt#o%2>%##%-121%-47r5>24><-,,,,>,%%:>,799,80222;@>128qe8;9yt9tyyer9:<2,0w881509ttppeee98:*=#697",
"551=iee$#%>>%$#-<162%#40t5<44*<-%,,,%,%,<:>799<9w82<,#:,28y03<eyr3yirer9=<=2ee04;000yypstqe58<$*#97w",
"29<&itr#%%4%=%#::20,%#44t5:25$--%4,%,,%%>>>909<9w61:2+>,83t0319pr3ypter8=2:2eww4;eq9yyapywe22;&=#69w",
"082*itr%%%%4:$#--474%$47t5,44$*-%,,>,%%4<218q016w92,<+:221qq32qar6ypyee2=224rww1=909ryppt0e22=#$@99w",
"93:@ptw##%4>:##-:964$#40t5-2<$=-%,,,>%%%,214r82009<<=@>,42qt339ay8tpyee4=:29w992<999ryppy8r43=#*#69w",
"33;@ptwo#%>>=##:=994##47t4>4<%$-%%,,%,,%88>8r920982:<$:,439r339sq9tsyrw4=:448499<989ruspy9e82*==#99e",
"53:&per@+%,:%%@::692%$29t2,41-&=,%4%4%%,<4:9e049998;<*:>,59r559ae9yyyte<<,4424w9<0q9eydpy9e28*;=@978",
"24;&ayyO+:4--%#>:7w,%=48t5<>,-$=%:%4,,4%$>,6e82909<:1;:,249e988uy9ryyrq:1124,6e6<9e8eyaapqe25&,=$996",
"842&urr&+%2:=%%>>6w2=%69e0,4>%#%,%>%,%,%=::9t5<9w626>::,488y838yy0yyuer14,2427w429t8yipdyre32=2==099",
"5w<*pyr@+-1-=%#,>692=$96re45,%$$%>%>,,%%-118ew48969,:::2138y3<eyy8yeire342,1>9w41qy2tasau9052*<#:w90",
"23&&ate+#%:==%$>>604##62iw444--$>>%>>:%::141re,8w9<:2>:,529p5:0yr9rrire6<,,,,w9<3qy3yaadt5w83@1=>9w0",
"33*@dreO#$:-=:%>>694#@64ii744-%$%>>>:::1:142y02099142:%2228a8<9ar9rrirr2<212,e913qt8ypadt5e53=<&<908",
"<9;+drt+$%>--:%,,497$+24iir44:%%%,%,:>-1-1,4tw4997208--4559u8<qprqqrtrr2,<2,2q8:3rr8iaddt<e28::&,w98",
"20=@pte+$$>,::%2,476%.26iit47>%%%4>>,%=<-2<4rr2794448%%4599p929prr0qrry6::,24q9<2ry8ipaay2w58;=#4e92",
"29*&preO&$,1:-$>:474$.44iit74%%%>4%4>%%4%4>4te,9944<51-4479y918prqqqert9:=,47w948yy8padde2w29*;=5w93",
"28@&prqX=%,11-%::444#o44tty77:>%%7%,,,,,7%,>te49045,91-1444y8<8yyqewett0:>249r748yy5yaadw4e2q*;;2084",
"38@*de9.#&>1>$#->444#.49tre904%:,4%4,,%44:44tr4994,05-:,499t017iywqwert9;<26wr620ir9ypdf92e3q;<=,982",
"39@*pe9O@=:::$+<>,44$.47ie0944:%%7%,4%%7>%>4tr4904495-:,445i019prq90rey8<,84we94wae9yyafq2w19=2=<w8<"
};
